<?xml version="1.0" encoding="iso-8859-1"?>
<!-- Generator: Adobe Illustrator 21.0.0, SVG Export Plug-In . SVG Version: 6.00 Build 0)  -->
<svg version="1.1" id="logo2_1_" xmlns="http://www.w3.org/2000/svg" xmlns:xlink="http://www.w3.org/1999/xlink" x="0px" y="0px" viewBox="0 0 185 33" style="enable-background:new 0 0 185 33;" xml:space="preserve">
	<g id="logo2">
		<g>
			<path style="fill-rule:evenodd;clip-rule:evenodd;fill:#41D9D9;" d="M70.5,5c-1.468,0-2.878,0.241-4.198,0.679
				C66.046,5.763,66.248,7.901,66,8c-0.297,0.118-1.043-1.8-1.33-1.662C62.742,3.165,58.914,1,54.5,1
				c-4.06,0-7.621,1.834-9.668,4.597C42.974,4.589,40.814,4,38.5,4C30.931,4,26,11.937,26,19.5V20c0,6.627,5.373,12,12,12
				c2.156,0,4.167-0.584,5.911-1.584C44.344,30.775,44.893,31,45.5,31c1.381,0,2.5-1.119,2.5-2.5S46.881,26,45.5,26
				c-1.381,0-2.5,1.119-2.5,2.5c0,0.171,0.018,0.338,0.05,0.5H40c-2.761,0-5-2.239-5-5s3.239-5,6-5
				c8.641-0.352,12.856,3.743,16.117,5.007c0.518-1.404,1.694-2.505,2.326-3.13C57.968,27.713,63.222,32.208,70.5,32
				C77.956,32,83,25.956,83,18.5C83,11.044,77.956,5,70.5,5z M51.5,10C50.672,10,50,9.328,50,8.5S50.672,7,51.5,7S53,7.672,53,8.5
				S52.328,10,51.5,10z M92,29h3l1.667-5h-3L92,29z M96,14h3v-1h3l1-2h-4v-1h3l1-2h-4V7h3l1-2h-4V4h-3v1h-4v2h4v1h-4v2h4v1h-4v2h4V14
				z M115,22v-7H93v2h19v1H94v2h18v2H115z M109,14h3v-1h3l1-2h-4v-1h3l1-2h-4V7h3l1-2h-4V4h-3v1h-4v2h4v1h-4v2h4v1h-4v2h4V14z
				 M100,23h3l1,3h3l-1-3h3l1-2H93v2h4v6h14l1-2h-12V23z M112,23l2,6h3l-2-6H112z M171,5h-22v2h21L171,5z M172,17l1-2h-25v2h5.892
				c0,0-3.18,6.477-4.868,9.914c-0.919,2.089,2.095,2.086,2.095,2.086H172l-4.628-9h-3.369l3.6,7h-15.501l4.91-10H172z M140,15h3l1-2
				h-4v-2h-3v2h-6v-2h-3v2h-3v2h3v2h-4v-7h20V5h-3v3h-17V7h15l1-2h-19v19.293c0,2.761-1,4.707-1,4.707s4-0.6,4-2.956V19h2
				c0,0,0,4.849,0,6.996c0,1.01-0.24,3.004,1.89,3.004c2.899,0,7.11,0,7.11,0l1-2h-7v-8h15l1-2h-5V15z M137,17h-6v-2h6V17z M140,20
				l-2.842,2.842L134,20h-4l10,9h4l-4.737-4.263L144,20H140z"/>
		</g>
	</g>
</svg>
